<?xml version="1.0" encoding="utf-8"?>
<svg viewBox="0 0 500 500" xmlns="http://www.w3.org/2000/svg" xmlns:bx="https://boxy-svg.com">
  <defs>
    <radialGradient gradientUnits="userSpaceOnUse" cx="196.084" cy="200.409" r="200.092" id="gradient-0" spreadMethod="pad" gradientTransform="matrix(0.88009, 0.826839, -0.826839, 0.880089, 218.201786, -202.573745)">
      <stop offset="0" style="stop-color: rgb(238, 255, 255);"/>
      <stop offset="1" style="stop-color: rgb(102, 204, 255);"/>
    </radialGradient>
  </defs>
  <path style="stroke: rgb(0, 85, 119); paint-order: fill; fill: url('#gradient-0'); fill-opacity: 0.8;" d="M 100 240.96 C 103.368 228.157 110.736 185.829 134.112 154.052 C 161.22 117.202 204.357 95.313 252.1 95.313 C 372.331 95.313 410.01 196.905 421.568 274.976 C 452.768 300 461.542 315.856 459.963 347.622 C 457.939 388.352 377.951 395.689 359.711 400 C 273.348 420.413 233.763 394.904 215.916 393.836 C 187.692 392.147 124.791 416.655 76.406 376.809 C 54.464 358.739 56.271 316.784 71.255 299.063 C 80.478 288.156 95.313 258.776 100 240.96 Z"/>
  <path d="M 728.8 336.371 L 736.711 346.512 L 748.8 350.902 L 741.6 361.559 L 741.161 374.413 L 728.8 370.859 L 716.439 374.413 L 716 361.559 L 708.8 350.902 L 720.889 346.512 Z" style="fill: rgb(255, 238, 0); fill-opacity: 0.8; transform-origin: 728.778px 355.376px;" transform="matrix(1, 0.000078, -0.000078, 1, -478.7985, -204.369449)" bx:shape="star 728.8 357.4 21.029 21.029 0.64 5 1@543ec085"/>
  <path style="fill-opacity: 0.8;" d="M 190 188.573 C 190 177.143 210 177.143 210 188.573 L 210 211.429 C 210 222.858 190 222.858 190 211.429 L 190 188.573 Z"/>
  <path style="fill-opacity: 0.8;" d="M 290 188.573 C 290 177.143 310 177.143 310 188.573 L 310 211.429 C 310 222.858 290 222.858 290 211.429 L 290 188.573 Z"/>
  <path style="stroke: rgb(0, 0, 0); fill: none; stroke-width: 8px; stroke-linejoin: round; stroke-opacity: 0.8; transform-origin: 250px 233.181px;" d="M 240 231.909 C 240 238.279 246.672 237.862 250 230 C 253.504 237.965 260 238.279 260 231.909"/>
</svg>